<?xml version="1.0" encoding="utf-8"?>
<!-- Generator: Adobe Illustrator 23.0.0, SVG Export Plug-In . SVG Version: 6.00 Build 0)  -->
<svg version="1.1" xmlns="http://www.w3.org/2000/svg" xmlns:xlink="http://www.w3.org/1999/xlink" x="0px" y="0px"
	 viewBox="0 0 175 80" style="enable-background:new 0 0 175 80;" xml:space="preserve">
<g id="Camada_2">
	<g>
		<path d="M63.3,79.1c-0.9,0.5-3,0.9-5.2,0.9c-7.3,0-11-5.3-11-12.4c0-7,3.8-12.4,10.9-12.4c2.4,0,4.4,0.7,5.3,1l-0.2,4
			c-0.9-0.4-2.3-1.3-4.5-1.3c-3.6,0-6.8,2.5-6.8,8.7c0,6.2,3.1,8.7,6.8,8.7c2.1,0,3.5-0.5,4.5-1.2L63.3,79.1z"/>
	</g>
	<path d="M73.9,61.7c3.6,0,7.8,1.9,7.8,9.1c0,7.4-4.2,9.2-7.8,9.2c-3.6,0-7.8-1.7-7.8-9.2C66.1,63.6,70.3,61.7,73.9,61.7z
		 M73.9,76.9c2.8,0,3.4-3.2,3.4-6.1c0-3-0.6-6.1-3.4-6.1c-2.8,0-3.4,3.1-3.4,6.1C70.5,73.7,71.1,76.9,73.9,76.9z"/>
	<path d="M85.2,64.9c0-1.1,0-2.1-0.1-2.9h3.9c0,1.1,0.1,2.2,0.1,3.2h0.1c0.5-1.4,1.9-3.5,4.5-3.5c0.3,0,0.5,0.1,0.7,0.1v4
		c-0.4-0.1-0.8-0.2-1.2-0.2c-1.8,0-3.7,1.1-3.7,4.4v9.7h-4.3V64.9z"/>
	<path d="M97.6,63c1.2-0.6,2.9-1.3,5.6-1.3c5.5,0,6.8,2.7,6.8,7.1v7.7c0,1.3,0.1,2.4,0.2,3.1h-3.9c-0.2-0.7-0.2-1.5-0.2-2.4h-0.1
		c-1.1,1.4-2.4,2.7-5,2.7c-2.8,0-5.3-1.9-5.3-5.2c0-4.8,3.9-6,9.3-6h0.9v-0.7c0-1.8-0.9-3.4-3.3-3.4c-2.1,0-4,1-4.9,1.7L97.6,63z
		 M106,71h-0.4c-3.6,0-5.8,0.8-5.8,3.3c0,1.6,1.1,2.7,2.7,2.7c2.5,0,3.5-1.9,3.5-5.1V71z"/>
	<path d="M117.5,70.1l-4.9-8.2h4.8l2.8,5.7l2.9-5.7h4.4l-4.9,8.2l5.3,9.6h-4.7l-3.3-6.6l-3.3,6.6h-4.5L117.5,70.1z"/>
	<path d="M51.2,71.1l-0.1-1.2l0-0.7l-0.3-10.8l0.4-0.5l0.7-0.8c0,0,0-0.1,0.1-0.1l0.6-0.5c0.1-0.1,0.1-0.1,0.2-0.1l0.9-0.4
		c0.1,0,0.2-0.1,0.3-0.1l0.9-0.1c0,0,0,0,0.1,0l1.1-0.2c0.1,0,0.2,0,0.3,0l0.7,0.1c0.1,0,0.2,0,0.3,0l1.8-0.5c0.1,0,0.1,0,0.2,0
		l1.7,0l0.6,0.1l0.1-0.1l0.3,0.3l0.6,0.5l0-0.3L62.2,55l-0.1-0.1l0.6,0.4l0.3,0.5l0.2,0.8l0.3,0.5l0.4,1.5l0.5,1.9l0.5,1.7
		c0,0.1,0,0.1,0,0.2l0.1,1.3c0,0.1,0,0.3,0,0.4l-0.3,0.8l-0.1-0.5c0-0.2-0.2-0.5-0.4-0.6l-0.7-0.5c-0.1,0-0.1-0.1-0.1-0.1L63,62.4
		c-0.1-0.1-0.1-0.2-0.2-0.3l-0.5-0.9L62,60.6c-0.1-0.1-0.2-0.3-0.3-0.3L61.2,60c-0.1-0.1-0.2-0.1-0.3-0.1l-0.7-0.1c0,0-0.1,0-0.1,0
		l-0.7-0.1l-0.2,0.3c-0.2,0.2-0.3,0.5-0.2,0.7l0.1,1.2l0.1,0.5l-0.4-0.4l0.1,1.4l-0.4-0.4l0,1.3l-0.1-0.2l-0.6,1
		c-0.1,0.2-0.2,0.3-0.4,0.5L57.3,66c0,0,0,0.1-0.1,0.1c-0.2,0.3-1.1,1.6-1.1,1.6c0,0-0.8,0.5-1.2,0.8c-0.2,0.2-0.5,0.3-0.8,0.4
		c-0.6,0.3-1.8,0.7-1.8,0.8c0,0.1-1.8,1.9-1.8,1.9"/>
	<path d="M31.8,66"/>
</g>
<g id="Camada_3" style="display:none;">
	<path style="display:inline;" d="M35.4,69.6c-0.3-0.4,1.1-2.1,2.2-3.1c0.3-0.3,0.7-0.6,1.2-1c2-1.4,3.1-1.7,4.8-2.7
		c1.3-0.8,0.8-0.7,3.1-2.4C49.2,58.5,52,57,52,57l0,0c0,0-0.5,3-1,6.2c-0.4,2.5-0.3,2.7-0.6,3.9c-0.3,1.4-0.6,2.7-1.2,3.9
		c-1.1,2.4-3,3.7-4.8,4.9c-2.7,1.9-5.1,2.6-6.5,3.1c-2,0.6-3.6,0.8-5.4,1c-2.3,0.3-5.9,0.7-6.1,0c-0.1-0.4,0.9-0.9,4.8-3.3
		c4-2.4,5.7-3.6,5.8-3.4c0.1,0.1-0.4,0.7-1.2,1.2c-2.7,1.6-6.8,0-6.8,0l0,0c0,0,2.6-0.5,5.1-1.7c1.4-0.7,2.1-1.2,2.6-1.5
		c0.9-0.7,1.9-1.9,1.7-2.2C38,68.7,35.8,70.1,35.4,69.6z"/>
</g>
<g id="Camada_4">
	<path d="M52.8,56.3l-7.7,5.3l-3.5,1.6L37.4,65c0,0-2.3,2.1-2.5,2.3c-0.2,0.2-1.9,2-1.9,2l3.4-1.7l3.7-1.6l-2.4,2.1l1.4-0.5l0.4-0.4
		L35.6,72l-6.4,2.6l9-2.1l2.2-1.7l-10,5.4l-4,1.5l8.4-0.7l3.2-1.7L26.4,80h6.1l7.3-1.7l5.6-3.1l2.8-2.5l3.6-5L52.8,56.3z"/>
</g>
</svg>
