<?xml version="1.0" encoding="utf-8"?>
<!-- Generator: Adobe Illustrator 23.0.0, SVG Export Plug-In . SVG Version: 6.00 Build 0)  -->
<svg version="1.1" id="Camada_1" xmlns="http://www.w3.org/2000/svg" xmlns:xlink="http://www.w3.org/1999/xlink" x="0px" y="0px"
	 viewBox="0 0 425.2 425.2" style="enable-background:new 0 0 425.2 425.2;" xml:space="preserve">
<g>
	<path d="M52.9,32.4h181.5c95.5,0,113,70.5,113,101.5c0,39.5-20,73.5-55.5,85.5c29.5,13,45.5,24,45.5,91c0,52.5,0,65.5,16,71.5v9.5
		h-83c-5-17-8-35.5-8-72.5c0-49-3-68-58.5-68h-77.5v140.5H52.9V32.4z M214.4,190.4c39,0,58-13.5,58-49c0-19-8.5-47-52.5-47h-93.5v96
		H214.4z"/>
</g>
</svg>
