<?xml version="1.0" encoding="utf-8"?>
<!-- Generator: Adobe Illustrator 23.0.0, SVG Export Plug-In . SVG Version: 6.00 Build 0)  -->
<svg version="1.1" xmlns="http://www.w3.org/2000/svg" xmlns:xlink="http://www.w3.org/1999/xlink" x="0px" y="0px"
	 viewBox="0 0 425.2 425.2" style="enable-background:new 0 0 425.2 425.2;" xml:space="preserve">
<g id="Camada_1">
	<polygon points="304.2,250.2 304.2,384.2 425.5,320.2 	"/>
	<polygon points="304.2,182.6 304.2,48.6 425.5,112.7 	"/>
	<polygon points="29.9,118.2 0,115.6 0,81.5 69.7,98.8 	"/>
	<polygon points="71.7,138.3 29.9,118.2 69.7,98.8 128.9,140.3 	"/>
	<polygon points="127.5,188.2 71.7,138.3 128.9,140.3 175.1,187.5 	"/>
	<polygon points="222.2,309.5 127.5,188.2 175.1,187.5 255.7,293 	"/>
	<polygon points="241.3,326.9 222.2,309.5 255.7,293 266,300.2 	"/>
	<polygon points="261,334.5 241.3,326.9 266,300.2 304.2,302.7 	"/>
	<polygon points="304.2,337.1 261,334.5 304.2,302.7 304.2,302.7 	"/>
	<polyline points="29.9,314.6 69.7,334 128.9,292.5 71.7,294.5 29.9,314.6 	"/>
	<polygon points="127.5,244.6 71.7,294.5 128.9,292.5 175.1,245.4 	"/>
	<polygon points="222.2,123.3 127.5,244.6 175.1,245.4 255.7,139.8 	"/>
	<polygon points="241.3,105.9 222.2,123.3 255.7,139.8 266,132.7 	"/>
	<polyline points="304.2,130.1 261,98.3 241.3,105.9 266,132.7 304.2,130.1 	"/>
	<polyline points="304.2,95.7 261,98.3 304.2,130.1 	"/>
	<polyline points="-0.3,329.5 -0.3,352.3 69.7,334 29.9,314.6 0,319.2 	"/>
</g>
<g id="Camada_2">
</g>
</svg>
