<?xml version="1.0" encoding="utf-8"?>
<!-- Generator: Adobe Illustrator 23.0.0, SVG Export Plug-In . SVG Version: 6.00 Build 0)  -->
<svg version="1.1" id="Camada_1" xmlns="http://www.w3.org/2000/svg" xmlns:xlink="http://www.w3.org/1999/xlink" x="0px" y="0px"
	 viewBox="0 0 425.2 425.2" style="enable-background:new 0 0 425.2 425.2;" xml:space="preserve">
<path style="fill:#010202;stroke:#000000;stroke-miterlimit:10;" d="M54.4,285.6H7.1c-3.9,0-7.1-2.8-7.1-6.3V146.6
	c0-3.5,3.2-6.3,7.1-6.3h47.3c3.9,0,7.1,2.8,7.1,6.3v132.7C61.5,282.8,58.3,285.6,54.4,285.6z"/>
<line style="fill:#010202;stroke:#000000;stroke-miterlimit:10;" x1="52.8" y1="282.8" x2="52.8" y2="142.4"/>
<path style="fill:#010202;stroke:#000000;stroke-miterlimit:10;" d="M175.2,383.9L56.5,285.8c-2.3-1.9-3.7-4.8-3.7-7.9V147.2
	c0-3,1.4-5.9,3.7-7.9l118.7-98.1c6.7-5.5,16.7-0.8,16.7,7.9V376C191.9,384.6,181.8,389.4,175.2,383.9z"/>
<path style="fill:none;stroke:#010202;stroke-width:27;stroke-linecap:round;stroke-miterlimit:10;" d="M220.7,179.9
	c2.7,3.5,9.9,14,10.2,29.3c0.3,17.1-8.3,28.8-10.9,32"/>
</svg>
