<?xml version="1.0" encoding="utf-8"?>
<!-- Generator: Adobe Illustrator 23.0.0, SVG Export Plug-In . SVG Version: 6.00 Build 0)  -->
<svg version="1.1" id="Camada_1" xmlns="http://www.w3.org/2000/svg" xmlns:xlink="http://www.w3.org/1999/xlink" x="0px" y="0px"
	 viewBox="0 0 425.2 425.2" style="enable-background:new 0 0 425.2 425.2;" xml:space="preserve">
<path style="fill:#010202;stroke:#000000;stroke-miterlimit:10;" d="M54.4,291.5H7.1c-3.9,0-7.1-2.8-7.1-6.3V152.6
	c0-3.5,3.2-6.3,7.1-6.3h47.3c3.9,0,7.1,2.8,7.1,6.3v132.7C61.5,288.7,58.3,291.5,54.4,291.5z"/>
<line style="fill:#010202;stroke:#000000;stroke-miterlimit:10;" x1="52.8" y1="288.7" x2="52.8" y2="148.3"/>
<path style="fill:#010202;stroke:#000000;stroke-miterlimit:10;" d="M175.2,389.8L56.5,291.8c-2.3-1.9-3.7-4.8-3.7-7.9V153.2
	c0-3,1.4-5.9,3.7-7.9l118.7-98.1c6.7-5.5,16.7-0.8,16.7,7.9V382C191.9,390.6,181.8,395.3,175.2,389.8z"/>
<line style="fill:none;stroke:#010202;stroke-width:27;stroke-linecap:round;stroke-miterlimit:10;" x1="245.3" y1="175.1" x2="322.9" y2="272.3"/>
<line style="fill:none;stroke:#010202;stroke-width:27;stroke-linecap:round;stroke-miterlimit:10;" x1="321.9" y1="175.9" x2="244.3" y2="273.1"/>
</svg>
